<svg preserveAspectRatio="none" width="100%" height="100%" overflow="visible" style="display: block;" viewBox="0 0 16 21" fill="none" xmlns="http://www.w3.org/2000/svg">
<g id="Group">
<g id="Vector">
</g>
<path id="Vector_2" fill-rule="evenodd" clip-rule="evenodd" d="M16 11.0123V16.0123C16 16.8079 15.6839 17.571 15.1213 18.1336C14.5587 18.6962 13.7957 19.0123 13 19.0123H3C2.20436 19.0123 1.44129 18.6962 0.878684 18.1336C0.316075 17.571 4.4267e-06 16.8079 4.4267e-06 16.0123V11.0123H16ZM8 0.0122882C9.33 0.0122882 10.584 0.336288 11.687 0.911288L12.293 0.305288C12.3853 0.209778 12.4956 0.133596 12.6176 0.0811869C12.7396 0.0287779 12.8708 0.00119157 13.0036 3.77567e-05C13.1364 -0.00111606 13.2681 0.0241857 13.391 0.0744666C13.5139 0.124747 13.6255 0.199001 13.7194 0.292893C13.8133 0.386786 13.8875 0.498438 13.9378 0.621334C13.9881 0.74423 14.0134 0.87591 14.0123 1.00869C14.0111 1.14147 13.9835 1.27269 13.9311 1.39469C13.8787 1.5167 13.8025 1.62704 13.707 1.71929L13.357 2.06929C14.1901 2.81877 14.8561 3.73534 15.3115 4.75929C15.7668 5.78325 16.0015 6.89164 16 8.01229V9.01229H4.4267e-06V8.01229C-0.00117579 6.89173 0.233653 5.78349 0.689201 4.75971C1.14475 3.73593 1.81081 2.81957 2.644 2.07029L2.293 1.72029C2.10536 1.53278 1.9999 1.27841 1.9998 1.01314C1.99971 0.747872 2.105 0.493429 2.2925 0.305788C2.48001 0.118147 2.73438 0.0126795 2.99965 0.0125857C3.26492 0.012492 3.51936 0.11778 3.707 0.305288L4.313 0.911288C5.45211 0.320235 6.71669 0.0118929 8 0.0122882ZM5 4.01229C4.73479 4.01229 4.48043 4.11765 4.2929 4.30518C4.10536 4.49272 4 4.74707 4 5.01229C4 5.2775 4.10536 5.53186 4.2929 5.71939C4.48043 5.90693 4.73479 6.01229 5 6.01229C5.26522 6.01229 5.51957 5.90693 5.70711 5.71939C5.89465 5.53186 6 5.2775 6 5.01229C6 4.74707 5.89465 4.49272 5.70711 4.30518C5.51957 4.11765 5.26522 4.01229 5 4.01229ZM11 4.01229C10.7348 4.01229 10.4804 4.11765 10.2929 4.30518C10.1054 4.49272 10 4.74707 10 5.01229C10 5.2775 10.1054 5.53186 10.2929 5.71939C10.4804 5.90693 10.7348 6.01229 11 6.01229C11.2652 6.01229 11.5196 5.90693 11.7071 5.71939C11.8946 5.53186 12 5.2775 12 5.01229C12 4.74707 11.8946 4.49272 11.7071 4.30518C11.5196 4.11765 11.2652 4.01229 11 4.01229Z" fill="var(--fill-0, #FBFBFB)"/>
</g>
</svg>
