<svg preserveAspectRatio="none" width="100%" height="100%" overflow="visible" style="display: block;" viewBox="0 0 9 9" fill="none" xmlns="http://www.w3.org/2000/svg">
<path id="Vector" fill-rule="evenodd" clip-rule="evenodd" d="M5.83333 1.56225C5.83346 0.699309 6.53313 -0.000135879 7.39607 1.98e-08C8.25902 0.000135993 8.95846 0.699801 8.95833 1.56275C8.95819 2.42569 8.25853 3.12514 7.39558 3.125L6.45813 3.12485V5.83348L7.39558 5.83333C8.25853 5.8332 8.95819 6.53264 8.95833 7.39559C8.95846 8.25853 8.25902 8.9582 7.39607 8.95833C6.53313 8.95847 5.83346 8.25902 5.83333 7.39608L5.83318 6.45813H3.12515L3.125 7.39608C3.12486 8.25902 2.4252 8.95847 1.56225 8.95833C0.699309 8.9582 -0.000135879 8.25853 1.98001e-08 7.39559C0.000135993 6.53264 0.699801 5.8332 1.56275 5.83333L2.4998 5.83348V3.12485L1.56275 3.125C0.699801 3.12514 0.000135993 2.42569 1.98001e-08 1.56275C-0.000135879 0.699801 0.699309 0.000135993 1.56225 1.98e-08C2.4252 -0.000135879 3.12486 0.699309 3.125 1.56225L3.12515 2.4998H5.83318L5.83333 1.56225ZM2.50015 2.4998L2.5 1.56235C2.49992 1.04459 2.08012 0.624918 1.56235 0.625C1.04459 0.625082 0.624918 1.04488 0.625 1.56265C0.625082 2.08041 1.04488 2.50008 1.56265 2.5L2.50015 2.4998ZM7.39598 0.625C6.87821 0.624918 6.45841 1.04459 6.45833 1.56235L6.45818 2.49985L7.39568 2.5C7.91345 2.50008 8.33325 2.08041 8.33333 1.56265C8.33341 1.04488 7.91374 0.625082 7.39598 0.625ZM3.1248 3.1248V5.83313H5.83313V3.1248H3.1248ZM8.33333 7.39569C8.33325 6.87792 7.91345 6.45825 7.39568 6.45833L6.45818 6.45848L6.45833 7.39598C6.45841 7.91375 6.87821 8.33341 7.39598 8.33333C7.91374 8.33325 8.33341 7.91345 8.33333 7.39569ZM0.625 7.39569C0.625082 6.87792 1.04488 6.45825 1.56265 6.45833L2.50015 6.45848L2.5 7.39598C2.49992 7.91375 2.08012 8.33341 1.56235 8.33333C1.04459 8.33325 0.624918 7.91345 0.625 7.39569Z" fill="var(--fill-0, #FBFBFB)"/>
</svg>
