<svg preserveAspectRatio="none" width="100%" height="100%" overflow="visible" style="display: block;" viewBox="0 0 18 18" fill="none" xmlns="http://www.w3.org/2000/svg">
<path id="Subtract" opacity="0.5" d="M3.5 3.83441e-09C2.24209 0.0707267 1.44798 0.271602 0.87868 0.842121C0 1.72268 0 3.13991 0 5.97438V11.9872C0 14.8217 0 16.2389 0.87868 17.1194C1.75736 18 3.17157 18 6 18H12C14.8284 18 16.2426 18 17.1213 17.1194C18 16.2389 18 14.8217 18 11.9872V5.97438C18 3.13991 18 1.72268 17.1213 0.842121C16.552 0.271602 15.7579 0.0707267 14.5 0V0.464374C14.5 2.12477 13.1569 3.47078 11.5 3.47078H6.5C4.84315 3.47078 3.5 2.12477 3.5 0.464374V3.83441e-09Z" fill="var(--fill-0, #FBFBFB)"/>
</svg>
