<svg preserveAspectRatio="none" width="100%" height="100%" overflow="visible" style="display: block;" viewBox="0 0 12 9" fill="none" xmlns="http://www.w3.org/2000/svg">
<path id="Vector" fill-rule="evenodd" clip-rule="evenodd" d="M0 0.75C0 0.335786 0.335786 0 0.75 0H10.75C11.1642 0 11.5 0.335786 11.5 0.75C11.5 1.16421 11.1642 1.5 10.75 1.5H0.75C0.335786 1.5 0 1.16421 0 0.75ZM1 4.25C1 3.83579 1.33579 3.5 1.75 3.5H9.75C10.1642 3.5 10.5 3.83579 10.5 4.25C10.5 4.66421 10.1642 5 9.75 5H1.75C1.33579 5 1 4.66421 1 4.25ZM2 7.75C2 7.33579 2.33579 7 2.75 7H8.75C9.16421 7 9.5 7.33579 9.5 7.75C9.5 8.16421 9.16421 8.5 8.75 8.5H2.75C2.33579 8.5 2 8.16421 2 7.75Z" fill="var(--fill-0, #FBFBFB)"/>
</svg>
