<svg preserveAspectRatio="none" width="100%" height="100%" overflow="visible" style="display: block;" viewBox="0 0 189 166" fill="none" xmlns="http://www.w3.org/2000/svg">
<g id="Vector">
<path d="M141.202 103.029H140.235V98.5746H141.531C142.653 98.5746 143.214 99.0435 143.214 99.9813C143.214 100.58 142.975 100.997 142.498 101.232L143.62 103.029H142.44L141.492 101.408H141.202V103.029ZM141.589 99.3952H141.202V100.607H141.666C142.028 100.607 142.208 100.398 142.208 99.9813C142.208 99.5906 142.002 99.3952 141.589 99.3952ZM144.742 97.7736C145.581 98.6072 146 99.6687 146 100.958C146 102.248 145.581 103.309 144.742 104.143C143.917 104.963 142.866 105.374 141.589 105.374C140.312 105.374 139.254 104.963 138.416 104.143C137.591 103.309 137.178 102.248 137.178 100.958C137.178 99.6557 137.591 98.5876 138.416 97.754C139.254 96.9204 140.312 96.5036 141.589 96.5036C142.866 96.5036 143.917 96.927 144.742 97.7736ZM138.281 100.958C138.281 101.961 138.584 102.775 139.19 103.4C139.796 104.013 140.602 104.319 141.608 104.319C142.614 104.319 143.414 104.013 144.007 103.4C144.614 102.775 144.917 101.961 144.917 100.958C144.917 99.9422 144.614 99.1217 144.007 98.4965C143.414 97.8713 142.614 97.5587 141.608 97.5587C140.602 97.5587 139.796 97.8713 139.19 98.4965C138.584 99.1217 138.281 99.9422 138.281 100.958Z" fill="var(--fill-0, #B6F500)"/>
<path d="M145.905 33V62.9877L94.7578 98.1028L43 62.9877V33L94.4524 70.135L145.905 33Z" fill="var(--fill-0, #B6F500)"/>
<path d="M145.905 108.437V133L43 133V108.437H145.905Z" fill="var(--fill-0, #B6F500)"/>
<path d="M3.9375 32.5V33.5H0V32.5H3.9375ZM19.6875 32.5V33.5H11.8125V32.5H19.6875ZM35.4375 32.5V33.5H27.5625V32.5H35.4375ZM51.1875 32.5V33.5H43.3125V32.5H51.1875ZM66.9375 32.5V33.5H59.0625V32.5H66.9375ZM82.6875 32.5V33.5H74.8125V32.5H82.6875ZM98.4375 32.5V33.5H90.5625V32.5H98.4375ZM114.188 32.5V33.5H106.312V32.5H114.188ZM129.938 32.5V33.5H122.062V32.5H129.938ZM145.688 32.5V33.5H137.812V32.5H145.688ZM161.438 32.5V33.5H153.562V32.5H161.438ZM177.188 32.5V33.5H169.312V32.5H177.188ZM189 32.5V33.5H185.062V32.5H189Z" fill="var(--fill-0, #B6F500)"/>
<path d="M3.9375 132.5V133.5H0V132.5H3.9375ZM19.6875 132.5V133.5H11.8125V132.5H19.6875ZM35.4375 132.5V133.5H27.5625V132.5H35.4375ZM51.1875 132.5V133.5H43.3125V132.5H51.1875ZM66.9375 132.5V133.5H59.0625V132.5H66.9375ZM82.6875 132.5V133.5H74.8125V132.5H82.6875ZM98.4375 132.5V133.5H90.5625V132.5H98.4375ZM114.188 132.5V133.5H106.312V132.5H114.188ZM129.938 132.5V133.5H122.062V132.5H129.938ZM145.688 132.5V133.5H137.812V132.5H145.688ZM161.438 132.5V133.5H153.562V132.5H161.438ZM177.188 132.5V133.5H169.312V132.5H177.188ZM189 132.5V133.5H185.062V132.5H189Z" fill="var(--fill-0, #B6F500)"/>
<path d="M43.5 161.85V166H42.5V161.85H43.5ZM43.5 145.25V153.55H42.5V145.25H43.5ZM43.5 128.65V136.95H42.5V128.65H43.5ZM43.5 112.05V120.35H42.5V112.05H43.5ZM43.5 95.4502V103.75H42.5V95.4502H43.5ZM43.5 78.8496V87.1504H42.5V78.8496H43.5ZM43.5 62.25V70.5498H42.5V62.25H43.5ZM43.5 45.6504V53.9502H42.5V45.6504H43.5ZM43.5 29.0498V37.3496H42.5V29.0498H43.5ZM43.5 12.4502V20.75H42.5V12.4502H43.5ZM43.5 0V4.15039H42.5V0H43.5Z" fill="var(--fill-0, #B6F500)"/>
<path d="M146.5 161.85V166H145.5V161.85H146.5ZM146.5 145.25V153.55H145.5V145.25H146.5ZM146.5 128.65V136.95H145.5V128.65H146.5ZM146.5 112.05V120.35H145.5V112.05H146.5ZM146.5 95.4502V103.75H145.5V95.4502H146.5ZM146.5 78.8496V87.1504H145.5V78.8496H146.5ZM146.5 62.25V70.5498H145.5V62.25H146.5ZM146.5 45.6504V53.9502H145.5V45.6504H146.5ZM146.5 29.0498V37.3496H145.5V29.0498H146.5ZM146.5 12.4502V20.75H145.5V12.4502H146.5ZM146.5 0V4.15039H145.5V0H146.5Z" fill="var(--fill-0, #B6F500)"/>
</g>
</svg>
