<svg preserveAspectRatio="none" width="100%" height="100%" overflow="visible" style="display: block;" viewBox="0 0 153 24" fill="none" xmlns="http://www.w3.org/2000/svg">
<g id="Logo">
<path d="M22.8842 1.84619V8.48961L11.51 16.2689L0 8.48961V1.84619L11.4421 10.073L22.8842 1.84619Z" fill="var(--fill-0, #B6F500)"/>
<path d="M22.8842 18.5583V24L2.28551e-07 24L0 18.5583H22.8842Z" fill="var(--fill-0, #B6F500)"/>
<path d="M131.215 23.7443H126.259V2.08675H131.698L136.752 11.0518C137.46 12.3157 138.071 13.5046 138.586 14.6186C139.123 15.7111 139.466 16.4823 139.616 16.9321L139.874 17.6391C139.659 16.0538 139.552 13.8581 139.552 11.0518V2.08675H144.508V23.7443H139.069L133.887 14.7792C133.2 13.6225 132.589 12.4871 132.052 11.3732C131.537 10.2378 131.183 9.40234 130.99 8.86679L130.733 8.06347C131.055 9.99144 131.215 12.23 131.215 14.7792V23.7443Z" fill="var(--fill-0, #B6F500)"/>
<path d="M122.877 12.8491C122.877 16.1695 121.911 18.8579 119.98 20.9144C118.07 22.9495 115.517 23.9671 112.32 23.9671C109.101 23.9671 106.537 22.9495 104.627 20.9144C102.718 18.8794 101.763 16.1909 101.763 12.8491C101.763 9.5287 102.718 6.85096 104.627 4.81587C106.558 2.75937 109.123 1.73112 112.32 1.73112C115.539 1.73112 118.103 2.74866 120.012 4.78374C121.922 6.81882 122.877 9.50728 122.877 12.8491ZM108.49 8.02916C107.546 9.20737 107.073 10.814 107.073 12.8491C107.073 14.8842 107.546 16.5015 108.49 17.7012C109.434 18.8794 110.711 19.4685 112.32 19.4685C113.929 19.4685 115.206 18.8794 116.15 17.7012C117.094 16.5015 117.566 14.8842 117.566 12.8491C117.566 10.814 117.094 9.20737 116.15 8.02916C115.206 6.82954 113.929 6.22972 112.32 6.22972C110.711 6.22972 109.434 6.82954 108.49 8.02916Z" fill="var(--fill-0, #B6F500)"/>
<path d="M99.5085 6.07123H94.2299V23.7443H89.241V6.07123H83.9303V2.08675H99.5085V6.07123Z" fill="var(--fill-0, #B6F500)"/>
<path d="M80.8644 23.7462H76.1651V7.45483H80.8644V23.7462ZM80.4459 0.80332C80.9824 1.33887 81.2506 1.98153 81.2506 2.73129C81.2506 3.48106 80.9824 4.12372 80.4459 4.65927C79.9095 5.19482 79.2658 5.46259 78.5148 5.46259C77.7637 5.46259 77.12 5.19482 76.5836 4.65927C76.0471 4.12372 75.7789 3.48106 75.7789 2.73129C75.7789 1.98153 76.0471 1.33887 76.5836 0.80332C77.12 0.267772 77.7637 0 78.5148 0C79.2658 0 79.9095 0.267772 80.4459 0.80332Z" fill="var(--fill-0, #B6F500)"/>
<path d="M72.1289 21.7507C70.069 23.2502 67.4726 24 64.3398 24C60.8637 24 58.042 23.0038 55.8748 21.0116C53.7076 19.0194 52.624 16.3095 52.624 12.882C52.624 9.49732 53.7505 6.78744 56.0035 4.75236C58.2781 2.71728 61.1534 1.69974 64.6295 1.69974C67.0757 1.69974 69.1892 2.1496 70.9702 3.04932V7.99778C68.9103 6.81958 66.7967 6.23047 64.6295 6.23047C62.591 6.23047 60.971 6.841 59.7694 8.06205C58.5677 9.26168 57.9669 10.8683 57.9669 12.882C57.9669 14.9171 58.557 16.5344 59.7372 17.734C60.9173 18.9337 62.5267 19.5335 64.5651 19.5335C65.4878 19.5335 66.3998 19.3942 67.301 19.1158V15.0349H63.7927V10.8255H72.1289V21.7507Z" fill="var(--fill-0, #B6F500)"/>
<path d="M50.7984 23.7443H44.5864L37.3123 12.9798L44.3289 2.08675H50.219L43.1059 12.9155L50.7984 23.7443ZM37.087 23.7443H32.1303V2.08675H37.087V23.7443Z" fill="var(--fill-0, #B6F500)"/>
<path d="M149.701 4.46997H149.036V1.41861H149.927C150.699 1.41861 151.085 1.73981 151.085 2.3822C151.085 2.79262 150.921 3.07812 150.592 3.23872L151.364 4.46997H150.553L149.901 3.35917H149.701V4.46997ZM149.967 1.98071H149.701V2.81046H150.021C150.269 2.81046 150.393 2.66771 150.393 2.3822C150.393 2.11454 150.251 1.98071 149.967 1.98071ZM152.135 0.869904C152.712 1.44092 153 2.16807 153 3.05136C153 3.93465 152.712 4.6618 152.135 5.23281C151.568 5.7949 150.845 6.07595 149.967 6.07595C149.089 6.07595 148.362 5.7949 147.786 5.23281C147.218 4.6618 146.935 3.93465 146.935 3.05136C146.935 2.15915 147.218 1.42754 147.786 0.856521C148.362 0.285507 149.089 0 149.967 0C150.845 0 151.568 0.289968 152.135 0.869904ZM147.693 3.05136C147.693 3.73836 147.901 4.29599 148.318 4.72425C148.735 5.14359 149.289 5.35326 149.981 5.35326C150.672 5.35326 151.222 5.14359 151.63 4.72425C152.047 4.29599 152.255 3.73836 152.255 3.05136C152.255 2.35543 152.047 1.79334 151.63 1.36508C151.222 0.93682 150.672 0.72269 149.981 0.72269C149.289 0.72269 148.735 0.93682 148.318 1.36508C147.901 1.79334 147.693 2.35543 147.693 3.05136Z" fill="var(--fill-0, #B6F500)"/>
</g>
</svg>
