<svg width="24" height="24" viewBox="0 0 24 24" fill="none" xmlns="http://www.w3.org/2000/svg">
<path fill-rule="evenodd" clip-rule="evenodd" d="M20 14.0001V19.0001C20 19.7957 19.6839 20.5588 19.1213 21.1214C18.5587 21.684 17.7957 22.0001 17 22.0001H7C6.20436 22.0001 5.44129 21.684 4.87868 21.1214C4.31608 20.5588 4 19.7957 4 19.0001V14.0001H20ZM12 3.00008C13.33 3.00008 14.584 3.32408 15.687 3.89908L16.293 3.29308C16.3853 3.19757 16.4956 3.12139 16.6176 3.06898C16.7396 3.01657 16.8708 2.98898 17.0036 2.98783C17.1364 2.98668 17.2681 3.01198 17.391 3.06226C17.5139 3.11254 17.6255 3.18679 17.7194 3.28069C17.8133 3.37458 17.8875 3.48623 17.9378 3.60913C17.9881 3.73202 18.0134 3.8637 18.0123 3.99648C18.0111 4.12926 17.9835 4.26048 17.9311 4.38249C17.8787 4.50449 17.8025 4.61483 17.707 4.70708L17.357 5.05708C18.1901 5.80657 18.8561 6.72313 19.3115 7.74709C19.7668 8.77104 20.0015 9.87943 20 11.0001V12.0001H4V11.0001C3.99882 9.87953 4.23365 8.77128 4.6892 7.7475C5.14475 6.72373 5.81081 5.80736 6.644 5.05808L6.293 4.70808C6.10536 4.52057 5.9999 4.2662 5.9998 4.00093C5.99971 3.73566 6.105 3.48122 6.2925 3.29358C6.48001 3.10594 6.73438 3.00047 6.99965 3.00038C7.26492 3.00028 7.51936 3.10557 7.707 3.29308L8.313 3.89908C9.45211 3.30803 10.7167 2.99969 12 3.00008ZM9 7.00008C8.73479 7.00008 8.48043 7.10544 8.2929 7.29297C8.10536 7.48051 8 7.73486 8 8.00008C8 8.2653 8.10536 8.51965 8.2929 8.70719C8.48043 8.89472 8.73479 9.00008 9 9.00008C9.26522 9.00008 9.51957 8.89472 9.70711 8.70719C9.89465 8.51965 10 8.2653 10 8.00008C10 7.73486 9.89465 7.48051 9.70711 7.29297C9.51957 7.10544 9.26522 7.00008 9 7.00008ZM15 7.00008C14.7348 7.00008 14.4804 7.10544 14.2929 7.29297C14.1054 7.48051 14 7.73486 14 8.00008C14 8.2653 14.1054 8.51965 14.2929 8.70719C14.4804 8.89472 14.7348 9.00008 15 9.00008C15.2652 9.00008 15.5196 8.89472 15.7071 8.70719C15.8946 8.51965 16 8.2653 16 8.00008C16 7.73486 15.8946 7.48051 15.7071 7.29297C15.5196 7.10544 15.2652 7.00008 15 7.00008Z" fill="#727272"/>
</svg>
