<svg preserveAspectRatio="none" width="100%" height="100%" overflow="visible" style="display: block;" viewBox="0 0 8 10" fill="none" xmlns="http://www.w3.org/2000/svg">
<path id="Vector" fill-rule="evenodd" clip-rule="evenodd" d="M0 0.75C0 0.335786 0.335786 0 0.75 0H7.25C7.66421 0 8 0.335786 8 0.75C8 1.16421 7.66421 1.5 7.25 1.5H0.75C0.335786 1.5 0 1.16421 0 0.75ZM0 4.75C0 4.33579 0.335786 4 0.75 4H3.75C4.16421 4 4.5 4.33579 4.5 4.75C4.5 5.16421 4.16421 5.5 3.75 5.5H0.75C0.335786 5.5 0 5.16421 0 4.75ZM0 8.75C0 8.33579 0.335786 8 0.75 8H2.25C2.66421 8 3 8.33579 3 8.75C3 9.16421 2.66421 9.5 2.25 9.5H0.75C0.335786 9.5 0 9.16421 0 8.75Z" fill="var(--fill-0, #FBFBFB)"/>
</svg>
