<svg preserveAspectRatio="none" width="100%" height="100%" overflow="visible" style="display: block;" viewBox="0 0 40 40" fill="none" xmlns="http://www.w3.org/2000/svg">
<g id="Product Icon" clip-path="url(#clip0_0_13)">
<path id="Vector" d="M20 30.8333C19.558 30.8333 19.1341 30.6577 18.8215 30.3452C18.5089 30.0326 18.3333 29.6087 18.3333 29.1667V25.8333C18.3333 25.3913 18.5089 24.9674 18.8215 24.6548C19.1341 24.3423 19.558 24.1667 20 24.1667C20.442 24.1667 20.866 24.3423 21.1785 24.6548C21.4911 24.9674 21.6667 25.3913 21.6667 25.8333V29.1667C21.6667 29.6087 21.4911 30.0326 21.1785 30.3452C20.866 30.6577 20.442 30.8333 20 30.8333Z" fill="var(--fill-0, #FBFBFB)"/>
<path id="Vector_2" d="M34.1667 40C34.6884 40.0007 35.203 39.8789 35.669 39.6444C36.1351 39.4099 36.5396 39.0693 36.85 38.65C37.1601 38.2293 37.3669 37.7416 37.4537 37.2263C37.5406 36.7109 37.5051 36.1824 37.35 35.6833L32.35 19.5167C32.243 19.1624 32.0211 18.8538 31.7194 18.6395C31.4176 18.4253 31.0531 18.3175 30.6833 18.3333H29.4833C29.2623 18.3333 29.0504 18.2455 28.8941 18.0893C28.7378 17.933 28.65 17.721 28.65 17.5V11.5167C28.6488 11.223 28.7253 10.9342 28.8716 10.6796C29.018 10.4249 29.229 10.2135 29.4833 10.0667C33.0545 8.0654 35.8532 4.92645 37.4333 1.15C37.499 1.02989 37.5334 0.89521 37.5334 0.758333C37.5334 0.621456 37.499 0.486775 37.4333 0.366667C37.349 0.243649 37.2337 0.145004 37.0991 0.0806423C36.9645 0.0162803 36.8154 -0.0115319 36.6667 2.10984e-10H4.16667C4.02902 -0.000128554 3.8934 0.0331734 3.77147 0.0970428C3.64953 0.160912 3.54494 0.253438 3.46667 0.366667C3.37959 0.475084 3.32164 0.60394 3.29831 0.741024C3.27497 0.878108 3.28703 1.01888 3.33333 1.15C4.78912 4.63607 7.28631 7.58729 10.4833 9.6C10.718 9.75059 10.9112 9.95766 11.0452 10.2023C11.1791 10.4468 11.2495 10.7211 11.25 11V17.5C11.25 17.721 11.1622 17.933 11.0059 18.0893C10.8496 18.2455 10.6377 18.3333 10.4167 18.3333H9.21667C8.84691 18.3175 8.4824 18.4253 8.18063 18.6395C7.87886 18.8538 7.65699 19.1624 7.55 19.5167L2.55 35.6833C2.39495 36.1824 2.35942 36.7109 2.44627 37.2263C2.53312 37.7416 2.73993 38.2293 3.05 38.65C3.3703 39.0832 3.79083 39.4323 4.27558 39.6674C4.76032 39.9025 5.29484 40.0167 5.83333 40H34.1667ZM15.4167 12.8833C15.416 12.7579 15.4442 12.6341 15.4991 12.5214C15.5541 12.4087 15.6342 12.3101 15.7333 12.2333C15.8289 12.1528 15.942 12.0958 16.0635 12.0669C16.1851 12.0379 16.3117 12.0378 16.4333 12.0667C17.7413 12.3562 19.077 12.5015 20.4167 12.5C21.4832 12.4961 22.5477 12.407 23.6 12.2333C23.7203 12.2081 23.8448 12.2116 23.9635 12.2435C24.0823 12.2753 24.1918 12.3346 24.2833 12.4167C24.3772 12.4934 24.4528 12.59 24.5047 12.6995C24.5566 12.8091 24.5835 12.9288 24.5833 13.05V17.5C24.5833 17.721 24.4955 17.933 24.3393 18.0893C24.183 18.2455 23.971 18.3333 23.75 18.3333H16.25C16.029 18.3333 15.817 18.2455 15.6607 18.0893C15.5045 17.933 15.4167 17.721 15.4167 17.5V12.8833ZM20 36.6667C18.5166 36.6667 17.0666 36.2268 15.8332 35.4027C14.5999 34.5786 13.6386 33.4072 13.0709 32.0368C12.5032 30.6663 12.3547 29.1583 12.6441 27.7035C12.9335 26.2486 13.6478 24.9123 14.6967 23.8634C15.7456 22.8145 17.082 22.1002 18.5368 21.8108C19.9917 21.5214 21.4997 21.6699 22.8701 22.2376C24.2406 22.8052 25.4119 23.7665 26.236 24.9999C27.0601 26.2333 27.5 27.6833 27.5 29.1667C27.5022 30.1522 27.3097 31.1285 26.9336 32.0394C26.5574 32.9503 26.0051 33.778 25.3082 34.4749C24.6113 35.1717 23.7837 35.7241 22.8727 36.1002C21.9618 36.4764 20.9855 36.6689 20 36.6667Z" fill="var(--fill-0, #FBFBFB)"/>
</g>
<defs>
<clipPath id="clip0_0_13">
<rect width="40" height="40" fill="white"/>
</clipPath>
</defs>
</svg>
